<mxfile host="app.diagrams.net" modified="2023-05-08T07:34:00.242Z" agent="Mozilla/5.0 (Windows NT 10.0; Win64; x64) AppleWebKit/537.36 (KHTML, like Gecko) Chrome/112.0.0.0 Safari/537.36" version="21.2.9" etag="VQQswFt7japXnGjMNnxQ" type="github">
  <diagram name="Страница 1" id="3g3gpZM4TwHAuupt2yRm">
    <mxGraphModel>
      <root>
        <mxCell id="0" />
        <mxCell id="1" parent="0" />
      </root>
    </mxGraphModel>
  </diagram>
</mxfile>
